<?xml version="1.0" encoding="utf-8"?>
<!-- Generator: Adobe Illustrator 27.5.0, SVG Export Plug-In . SVG Version: 6.00 Build 0)  -->
<svg version="1.1" id="Layer_1" xmlns="http://www.w3.org/2000/svg" xmlns:xlink="http://www.w3.org/1999/xlink" x="0px" y="0px"
	 viewBox="0 0 5000 2916" style="enable-background:new 0 0 5000 2916;" xml:space="preserve">
<g>
	<g>
		<defs>
			<rect id="SVGID_1_" width="5000" height="2916"/>
		</defs>
		<clipPath id="SVGID_00000108306381165881072340000015694248095089573783_">
			<use xlink:href="#SVGID_1_"  style="overflow:visible;"/>
		</clipPath>
		
			<linearGradient id="SVGID_00000078033507608479383450000011132583801802828465_" gradientUnits="userSpaceOnUse" x1="85.9965" y1="2741.543" x2="4656.3584" y2="311.4489">
			<stop  offset="0" style="stop-color:#33CC66"/>
			<stop  offset="1" style="stop-color:#CCFF66"/>
		</linearGradient>
		
			<rect style="clip-path:url(#SVGID_00000108306381165881072340000015694248095089573783_);fill:url(#SVGID_00000078033507608479383450000011132583801802828465_);" width="5000" height="2916"/>
	</g>
	<path style="fill:#FFFFFF;" d="M3878.426,2051.782l7.428,0.428l7.792-0.437l-7.262-0.137L3878.426,2051.782z M3827.325,2052.798
		l17.658,1.709c6.632-0.376,13.223-0.745,19.823-1.116c-6.184-0.343-12.488-0.676-18.699-1.019
		C3839.918,2052.497,3833.562,2052.662,3827.325,2052.798z M3800.051,2050.194l7.695,0.73c2.733-0.063,5.511-0.137,8.261-0.198
		l-7.517-0.411C3805.7,2050.269,3802.846,2050.235,3800.051,2050.194z M3782.966,2053.882l21.188,2.926
		c8.532-0.505,16.935-0.964,25.362-1.427c-7.261-0.703-14.608-1.399-21.911-2.098
		C3799.364,2053.491,3791.138,2053.694,3782.966,2053.882z M3751.293,2049.523l17.168,2.364l19.445-0.473l-17.051-1.619
		C3764.318,2049.704,3757.805,2049.616,3751.293,2049.523z M3723.202,2045.653l9.08,1.249l9.531,0.131l-9.278-0.88
		L3723.202,2045.653z M3740.199,2054.929l23.478,4.281c9.403-0.573,18.872-1.163,28.222-1.714l-23.62-3.255L3740.199,2054.929z
		 M3707.167,2048.913l21.647,3.942c8.345-0.207,16.648-0.406,24.962-0.609l-21.709-2.988
		C3723.775,2049.142,3715.501,2049.023,3707.167,2048.913z M3675.974,2043.232l17.201,3.134c6.668,0.084,13.263,0.178,19.875,0.271
		l-17.548-2.406L3675.974,2043.232z M3649.012,2038.315l8.966,1.636l10.031,0.516l-8.705-1.192L3649.012,2038.315z
		 M3698.594,2055.949l25.311,5.791c9.952-0.619,20.025-1.275,30.036-1.911l-25.32-4.615
		C3718.63,2055.455,3708.656,2055.688,3698.594,2055.949z M3665.322,2048.341l23.985,5.484c9.381-0.247,18.641-0.465,27.928-0.684
		l-24.275-4.42C3683.777,2048.585,3674.631,2048.444,3665.322,2048.341z M3633.473,2041.049c7.054,1.62,13.998,3.202,21.038,4.812
		c8.204,0.094,16.347,0.198,24.451,0.309l-21.25-3.875L3633.473,2041.049z M3602.697,2034.01c5.892,1.353,11.618,2.654,17.491,4.005
		l19.533,0.999l-17.467-3.188L3602.697,2034.01z M3576.13,2027.906c2.999,0.693,6.138,1.426,9.131,2.113l10.51,0.98l-8.995-1.641
		L3576.13,2027.906z M3656.951,2056.97c8.663,2.415,17.638,4.979,26.238,7.357c10.802-0.681,21.645-1.379,32.442-2.061
		l-26.585-6.083C3678.374,2056.439,3667.77,2056.672,3656.951,2056.97z M3624.821,2047.955c8.121,2.271,16.356,4.599,24.452,6.858
		c10.283-0.28,20.35-0.51,30.486-0.755l-25.535-5.842C3644.446,2048.126,3634.551,2048.055,3624.821,2047.955z M3592.783,2038.96
		c7.783,2.189,15.592,4.38,23.359,6.557c9.069,0.093,18.237,0.167,27.362,0.246c-7.917-1.813-15.721-3.589-23.66-5.411
		C3610.849,2039.889,3601.868,2039.42,3592.783,2038.96z M3561.513,2030.191c7.011,1.968,13.987,3.921,20.984,5.885
		c8.09,0.406,16.066,0.823,24.062,1.24c-7.283-1.677-14.347-3.275-21.673-4.964
		C3577.125,2031.629,3569.353,2030.91,3561.513,2030.191z M3531.88,2021.875c5.741,1.615,11.407,3.197,17.142,4.812
		c6.242,0.573,12.584,1.141,18.804,1.714c-5.596-1.292-11.432-2.656-17.048-3.954L3531.88,2021.875z M3506.048,2014.625
		c3.155,0.891,6.237,1.751,9.386,2.636l10.476,1.421l-8.731-2.025L3506.048,2014.625z M3616.581,2058.168l26.549,8.711
		c11.027-0.713,21.985-1.399,32.955-2.098c-8.918-2.48-18.128-5.097-27.107-7.604
		C3638.237,2057.49,3627.293,2057.86,3616.581,2058.168z M3584.35,2047.59c8.611,2.844,17.113,5.615,25.671,8.427
		c10.4-0.301,20.953-0.646,31.397-0.962c-8.497-2.376-17.082-4.791-25.603-7.182
		C3605.341,2047.779,3594.82,2047.685,3584.35,2047.59z M3552.453,2036.951c8.112,2.699,16.451,5.546,24.516,8.218l30.172,0.271
		l-25.025-7.025C3572.279,2037.924,3562.35,2037.441,3552.453,2036.951z M3521.589,2026.556c7.506,2.512,15.221,5.157,22.707,7.65
		c9.131,0.449,18.415,0.877,27.54,1.323c-7.757-2.175-15.447-4.327-23.219-6.515L3521.589,2026.556z M3491.358,2016.377
		c6.841,2.291,13.774,4.649,20.595,6.935l24.176,2.199c-7.08-1.996-14.04-3.928-21.131-5.927L3491.358,2016.377z M3462.648,2006.706
		c5.616,1.891,11.254,3.796,16.861,5.675l19.043,2.589c-5.866-1.656-11.566-3.234-17.449-4.895L3462.648,2006.706z
		 M3437.056,1998.082l10.083,3.401l9.565,1.744c-3.702-1.047-7.455-2.124-11.168-3.177L3437.056,1998.082z M3576.407,2059.391
		c8.724,3.379,17.392,6.708,26.106,10.072c11.531-0.761,22.859-1.453,34.286-2.183l-27.138-8.904
		C3598.603,2058.708,3587.459,2059.063,3576.407,2059.391z M3544.885,2047.236c8.657,3.348,17.227,6.635,25.873,9.978
		c10.76-0.324,21.583-0.667,32.349-0.991c-8.849-2.904-17.622-5.759-26.534-8.706
		C3566.025,2047.419,3555.478,2047.325,3544.885,2047.236z M3513.383,2035.083c8.465,3.29,16.801,6.467,25.249,9.736
		c10.251,0.085,20.429,0.184,30.622,0.278c-8.325-2.762-17.034-5.766-25.405-8.558
		C3533.708,2036.05,3523.51,2035.572,3513.383,2035.083z M3482.002,2022.953c8.215,3.219,16.228,6.254,24.4,9.436l29.289,1.402
		c-7.996-2.668-16.202-5.47-24.218-8.155L3482.002,2022.953z M3452.001,2011.032c7.361,2.896,14.937,5.975,22.272,8.848
		l27.564,2.512c-7.574-2.543-15.249-5.141-22.848-7.698L3452.001,2011.032z M3422.802,1999.431
		c6.674,2.634,13.456,5.368,20.115,7.994l24.222,3.281l-20.615-6.943L3422.802,1999.431z M3394.717,1988.27
		c5.638,2.234,11.311,4.504,16.94,6.728l19.355,3.535c-5.899-1.989-11.739-3.943-17.654-5.941
		C3407.154,1991.154,3400.974,1989.724,3394.717,1988.27z M3369.88,1978.401l10.218,4.058l10.204,2.365
		c-3.859-1.307-7.622-2.558-11.49-3.871L3369.88,1978.401z M3535.961,2060.629c8.621,3.881,17.153,7.666,25.765,11.53
		c11.77-0.795,23.472-1.568,35.166-2.337c-8.861-3.422-17.68-6.812-26.55-10.244
		C3558.899,2059.923,3547.441,2060.277,3535.961,2060.629z M3505.236,2046.876c8.643,3.896,17.169,7.667,25.805,11.551
		c11.25-0.353,22.448-0.693,33.647-1.031c-8.856-3.421-17.644-6.785-26.509-10.222
		C3527.205,2047.075,3516.305,2046.962,3505.236,2046.876z M3474.741,2033.229c8.422,3.8,16.705,7.457,25.118,11.243
		c10.786,0.076,21.386,0.191,32.064,0.29c-8.705-3.375-17.285-6.64-26.025-10.04
		C3495.528,2034.223,3485.147,2033.722,3474.741,2033.229z M3444.067,2019.5c8.325,3.771,16.466,7.338,24.769,11.088
		c10.053,0.479,20.075,0.964,30.086,1.443c-8.387-3.266-16.764-6.525-25.197-9.832
		C3463.856,2021.302,3454.021,2020.401,3444.067,2019.5z M3413.53,2005.834c8.069,3.673,15.862,7.052,23.895,10.693
		c9.599,0.869,19.065,1.735,28.574,2.604c-7.803-3.063-15.836-6.322-23.666-9.404L3413.53,2005.834z M3384.434,1992.42
		c7.185,3.292,14.536,6.764,21.698,10.031l27.118,3.664c-7.377-2.91-14.868-5.92-22.26-8.847L3384.434,1992.42z M3356.104,1979.318
		c6.569,3.025,13.223,6.139,19.783,9.145l23.957,4.38c-6.799-2.693-13.629-5.416-20.444-8.124
		C3371.67,1982.933,3363.964,1981.146,3356.104,1979.318z M3328.529,1966.564c5.689,2.63,11.401,5.281,17.079,7.9
		c6.483,1.51,12.817,2.975,19.17,4.443c-5.91-2.354-11.781-4.67-17.706-7.035L3328.529,1966.564z M3305.039,1955.701l9.6,4.437
		l10.407,2.979c-3.297-1.316-6.523-2.577-9.823-3.9C3311.833,1958.051,3308.408,1956.857,3305.039,1955.701z M3495.361,2061.869
		c8.527,4.369,17.148,8.86,25.638,13.177c11.835-0.817,23.88-1.709,35.73-2.532c-8.747-3.926-17.419-7.775-26.182-11.718
		C3518.825,2061.152,3507.174,2061.489,3495.361,2061.869z M3465.647,2046.602c8.47,4.358,16.94,8.717,25.393,13.051
		c11.62-0.38,23.058-0.71,34.583-1.058c-8.793-3.957-17.487-7.801-26.295-11.769
		C3488.14,2046.741,3476.895,2046.669,3465.647,2046.602z M3436.009,2031.373c8.36,4.311,16.665,8.558,25.013,12.852
		c10.969,0.068,22.001,0.121,32.932,0.193c-8.604-3.874-17.08-7.613-25.695-11.499
		C3457.514,2032.4,3446.831,2031.878,3436.009,2031.373z M3406.325,2016.121c8.246,4.269,16.393,8.405,24.624,12.648
		c10.547,0.495,20.947,1.005,31.406,1.505c-8.569-3.869-16.96-7.54-25.555-11.436
		C3426.69,2017.932,3416.444,2017.027,3406.325,2016.121z M3376.588,2000.841c8.117,4.224,16.071,8.224,24.167,12.416
		c9.77,0.879,19.647,1.748,29.434,2.623c-8.282-3.759-16.409-7.342-24.729-11.138L3376.588,2000.841z M3346.895,1985.562
		c7.886,4.13,15.55,7.957,23.41,12.05l27.882,3.766c-7.616-3.479-15.414-7.156-23.052-10.656L3346.895,1985.562z M3318.881,1970.648
		c7.014,3.697,14.176,7.602,21.168,11.269l26.534,4.849c-7.219-3.318-14.523-6.73-21.761-10.063
		C3336.238,1974.705,3327.53,1972.667,3318.881,1970.648z M3291.087,1955.848c6.534,3.464,13.146,7.029,19.664,10.472
		c7.761,1.812,15.788,3.707,23.572,5.526c-6.841-3.155-13.697-6.329-20.558-9.505
		C3306.22,1960.185,3298.689,1958.034,3291.087,1955.848z M3264.585,1941.744c5.513,2.932,11.046,5.885,16.549,8.808
		c6.29,1.805,12.51,3.583,18.736,5.362c-5.684-2.634-11.317-5.218-17.012-7.868
		C3276.751,1945.931,3270.66,1943.833,3264.585,1941.744z M3242.142,1929.793c3.051,1.63,6.086,3.239,9.131,4.86l10.343,3.571
		c-2.951-1.374-5.84-2.688-8.797-4.067C3249.29,1932.725,3245.672,1931.225,3242.142,1929.793z M3454.683,2063.119
		c8.563,4.928,17.204,9.979,25.711,14.8c12-0.843,24.073-1.718,36.051-2.551c-8.621-4.394-17.326-8.905-25.977-13.347
		C3478.526,2062.392,3466.745,2062.718,3454.683,2063.119z M3426.148,2046.434c8.215,4.766,16.56,9.754,24.743,14.474
		c11.864-0.403,23.5-0.741,35.25-1.11c-8.569-4.4-17.138-8.791-25.728-13.216
		C3449.033,2046.522,3437.519,2046.491,3426.148,2046.434z M3397.308,2029.561c8.251,4.817,16.551,9.714,24.78,14.5
		c11.194,0.056,22.51,0.087,33.704,0.139c-8.518-4.385-16.977-8.697-25.509-13.102
		C3419.319,2030.583,3408.345,2030.067,3397.308,2029.561z M3368.583,2012.761c8.13,4.771,16.248,9.505,24.358,14.25
		c10.777,0.493,21.557,0.99,32.282,1.489c-8.418-4.354-16.738-8.561-25.177-12.937L3368.583,2012.761z M3339.72,1995.877
		c8.064,4.754,16.046,9.37,24.088,14.093l30.668,2.729c-8.354-4.333-16.543-8.437-24.925-12.805L3339.72,1995.877z
		 M3310.813,1978.968c7.934,4.709,15.715,9.151,23.623,13.823l28.826,3.873c-8.027-4.192-15.978-8.275-24.036-12.503
		L3310.813,1978.968z M3282.325,1962.07c7.528,4.5,15.036,8.958,22.538,13.421l27.522,5.025c-7.443-3.911-15.045-8.04-22.51-11.982
		C3300.687,1966.377,3291.422,1964.194,3282.325,1962.07z M3255.172,1945.573c6.85,4.119,13.827,8.461,20.663,12.55
		c8.558,2.006,17.267,4.052,25.909,6.082c-7.153-3.786-14.384-7.67-21.553-11.473C3271.877,1950.359,3263.6,1948,3255.172,1945.573z
		 M3228.205,1929.189c6.435,3.89,12.927,7.885,19.346,11.755c7.647,2.202,15.155,4.337,22.692,6.495
		c-6.652-3.536-13.311-7.084-19.979-10.641L3228.205,1929.189z M3202.644,1913.654c5.352,3.255,10.72,6.526,16.066,9.764
		c6.092,2.104,12.161,4.198,18.237,6.291c-5.502-2.941-10.958-5.811-16.477-8.769
		C3214.51,1918.494,3208.563,1916.066,3202.644,1913.654z M3180.863,1900.422c3.01,1.833,5.992,3.641,8.995,5.469l10.059,4.109
		c-2.957-1.588-5.845-3.093-8.802-4.687C3187.725,1903.714,3184.257,1902.025,3180.863,1900.422z M3414.395,2064.594
		c8.564,5.493,17.054,10.826,25.555,16.191c12.083-0.865,24.108-1.713,36.134-2.557c-8.532-4.854-17.232-10-25.822-14.947
		C3438.378,2063.697,3426.264,2064.183,3414.395,2064.594z M3386.596,2046.263c8.059,5.249,16.319,10.932,24.341,16.101
		c11.77-0.412,23.761-0.886,35.54-1.295c-8.297-4.791-16.73-9.818-25.056-14.655
		C3409.844,2046.357,3398.204,2046.309,3386.596,2046.263z M3358.737,2027.844c8.064,5.291,16.228,10.802,24.266,16.05
		c11.463,0.045,22.936,0.088,34.357,0.145c-8.354-4.863-16.762-9.805-25.138-14.706
		C3381.103,2028.832,3369.857,2028.344,3358.737,2027.844z M3330.855,2009.397c8.013,5.297,16.066,10.661,24.062,15.916
		c10.942,0.493,22,0.973,32.941,1.468c-8.271-4.837-16.529-9.649-24.815-14.514
		C3352.324,2011.31,3341.637,2010.357,3330.855,2009.397z M3302.937,1990.936c7.939,5.271,15.856,10.494,23.785,15.727
		c10.569,0.937,21.043,1.875,31.548,2.813c-8.229-4.84-16.387-9.546-24.644-14.417L3302.937,1990.936z M3274.924,1972.408
		c7.866,5.259,15.644,10.32,23.493,15.538l29.924,4.022c-8.163-4.823-16.174-9.381-24.358-14.25L3274.924,1972.408z
		 M3246.629,1953.697c7.825,5.269,15.493,10.185,23.296,15.405l28.108,5.14c-7.669-4.567-15.436-9.307-23.125-13.911
		C3265.49,1958.123,3256.001,1955.888,3246.629,1953.697z M3220.084,1935.533c6.94,4.701,14.037,9.759,20.955,14.429l27.372,6.423
		c-7.23-4.339-14.597-8.907-21.849-13.275C3237.759,1940.595,3229.039,1938.12,3220.084,1935.533z M3193.467,1917.202
		c6.799,4.639,13.697,9.492,20.485,14.102c8.424,2.437,16.685,4.797,24.988,7.171c-7.069-4.261-14.196-8.635-21.276-12.924
		C3209.61,1922.774,3201.572,1920.009,3193.467,1917.202z M3167.422,1899.266c6.253,4.291,12.547,8.665,18.787,12.935
		c7.363,2.552,14.65,5.064,21.954,7.579c-6.476-3.932-12.948-7.855-19.434-11.806L3167.422,1899.266z M3142.621,1882.183
		c5.247,3.622,10.485,7.224,15.722,10.828l17.6,7.191c-5.435-3.322-10.823-6.546-16.268-9.884
		C3153.975,1887.59,3148.291,1884.877,3142.621,1882.183z M3121.095,1867.358c3.065,2.132,6.11,4.198,9.177,6.324l9.392,4.477
		c-3.394-2.088-6.722-4.051-10.121-6.146C3126.738,1870.477,3123.896,1868.885,3121.095,1867.358z M3374.533,2066.045
		c8.282,5.927,16.529,11.766,24.783,17.619c12.312-0.9,24.406-1.729,36.624-2.595c-8.553-5.394-17.096-10.783-25.717-16.325
		C3398.375,2065.166,3386.403,2065.619,3374.533,2066.045z M3347.004,2046.09c8.126,5.916,16.295,11.922,24.38,17.718
		c11.807-0.423,23.691-0.877,35.472-1.292c-8.115-5.246-16.45-10.959-24.604-16.276
		C3370.513,2046.19,3358.816,2046.133,3347.004,2046.09z M3320.146,2026.119c7.857,5.77,15.836,11.899,23.671,17.602
		c11.682,0.036,23.239,0.104,34.848,0.152c-8.135-5.319-16.387-10.874-24.55-16.239
		C3342.818,2027.129,3331.479,2026.625,3320.146,2026.119z M3293.176,2006.064c7.855,5.807,15.768,11.786,23.597,17.551
		c11.188,0.495,22.371,0.988,33.522,1.494c-8.121-5.343-16.285-10.775-24.427-16.155
		C3314.988,2007.992,3304.123,2007.023,3293.176,2006.064z M3266.204,1986c7.792,5.807,15.59,11.624,23.368,17.383
		c10.756,0.943,21.465,1.891,32.163,2.839c-8.075-5.343-16.123-10.639-24.213-16.013L3266.204,1986z M3239.129,1965.865
		c7.745,5.802,15.439,11.473,23.171,17.233l30.703,4.119c-8.037-5.343-15.987-10.509-24.04-15.899L3239.129,1965.865z
		 M3211.766,1945.516c7.741,5.848,15.372,11.382,23.098,17.18l29.096,5.316c-8.012-5.368-15.889-10.44-23.932-15.868
		L3211.766,1945.516z M3185.133,1925.363c7.298,5.555,14.597,11.107,21.875,16.611l27.684,6.5
		c-7.21-4.877-14.591-10.12-21.822-15.03C3203.66,1930.767,3194.284,1928.008,3185.133,1925.363z M3159.54,1905.49
		c6.81,5.229,13.739,10.759,20.538,15.945c8.788,2.547,17.752,5.177,26.618,7.759c-7.164-4.879-14.437-9.977-21.616-14.888
		C3176.579,1911.38,3168.135,1908.479,3159.54,1905.49z M3133.845,1885.544c6.621,5.113,13.3,10.383,19.911,15.462
		c8.106,2.816,16.061,5.546,24.062,8.3c-6.878-4.713-13.79-9.503-20.683-14.242
		C3149.378,1891.897,3141.637,1888.741,3133.845,1885.544z M3108.637,1865.978c6.097,4.734,12.198,9.489,18.288,14.196
		c7.076,2.906,14.094,5.765,21.125,8.629c-6.351-4.374-12.681-8.706-19.043-13.106L3108.637,1865.978z M3084.389,1847.153
		c5.179,4.046,10.333,8.014,15.508,12.041c5.596,2.678,11.172,5.326,16.758,7.994c-5.493-3.818-10.922-7.479-16.426-11.312
		C3094.936,1852.954,3089.656,1850.042,3084.389,1847.153z M3062.748,1830.358c3.238,2.541,6.439,4.973,9.678,7.51l8.26,4.55
		c-4.29-3-8.481-5.796-12.774-8.811C3066.193,1832.53,3064.461,1831.425,3062.748,1830.358z M3334.541,2067.51
		c8.017,6.37,16.029,12.728,24.04,19.087c12.431-0.928,24.629-1.771,36.962-2.666c-8.314-5.89-16.617-11.759-24.956-17.738
		C3358.592,2066.624,3346.582,2067.061,3334.541,2067.51z M3307.386,2045.923c8.149,6.593,16.213,12.889,24.317,19.336
		c11.948-0.446,23.838-0.875,35.733-1.306c-8.11-5.827-16.325-11.946-24.473-17.877
		C3331.09,2046.028,3319.366,2045.951,3307.386,2045.923z M3281.536,2024.395c7.631,6.25,15.397,12.993,23.004,19.16
		c11.875,0.026,23.472,0.103,35.239,0.15c-7.913-5.77-15.967-11.941-23.9-17.774
		C3304.435,2025.417,3293.051,2024.901,3281.536,2024.395z M3255.578,2002.783c7.636,6.307,15.348,12.873,22.964,19.123
		c11.39,0.5,22.644,1.01,33.963,1.516c-7.928-5.839-15.93-11.874-23.875-17.758
		C3277.651,2004.705,3266.563,2003.748,3255.578,2002.783z M3229.527,1981.094c7.621,6.339,15.269,12.759,22.876,19.05
		c10.848,0.948,21.781,1.896,32.62,2.844c-7.897-5.853-15.805-11.743-23.719-17.638L3229.527,1981.094z M3203.39,1959.332
		c7.59,6.352,15.153,12.623,22.734,18.93l31.276,4.181c-7.877-5.873-15.706-11.629-23.597-17.551L3203.39,1959.332z
		 M3176.996,1937.355c7.601,6.409,15.129,12.555,22.714,18.907l29.823,5.453c-7.908-5.935-15.711-11.581-23.64-17.581
		L3176.996,1937.355z M3150.561,1915.283c7.506,6.391,14.898,12.379,22.385,18.702l28.189,6.614
		c-7.381-5.593-14.841-11.416-22.238-17.061C3169.473,1920.799,3159.947,1918.008,3150.561,1915.283z M3125.988,1893.875
		c6.748,5.787,13.609,11.983,20.339,17.723c9.12,2.649,18.356,5.353,27.508,8.018c-7.058-5.396-14.237-11.112-21.313-16.545
		C3143.699,1900.021,3134.912,1896.989,3125.988,1893.875z M3101.043,1872.143c6.689,5.781,13.445,11.797,20.125,17.536
		c8.555,2.989,17.076,5.952,25.572,8.899c-7.017-5.396-14.092-10.962-21.125-16.395
		C3117.436,1878.851,3109.292,1875.544,3101.043,1872.143z M3076.215,1850.517c6.441,5.598,12.896,11.269,19.324,16.832
		c7.783,3.214,15.452,6.322,23.157,9.462c-6.716-5.203-13.441-10.415-20.169-15.655
		C3091.098,1857.619,3083.686,1854.094,3076.215,1850.517z M3051.707,1829.166c5.965,5.223,11.91,10.378,17.871,15.566
		c6.768,3.25,13.484,6.441,20.209,9.64c-6.279-4.897-12.514-9.666-18.804-14.598
		C3064.559,1836.237,3058.14,1832.711,3051.707,1829.166z M3027.832,1808.371c5.17,4.552,10.286,8.927,15.45,13.457
		c5.258,2.906,10.496,5.779,15.737,8.666c-5.669-4.458-11.254-8.666-16.94-13.15
		C3037.323,1814.34,3032.579,1811.351,3027.832,1808.371z M3005.77,1789.145c3.519,3.123,6.981,6.04,10.494,9.149l7.862,4.947
		c-3.427-2.714-6.924-5.64-10.351-8.363C3011.105,1792.961,3008.429,1791.042,3005.77,1789.145z M3293.888,2068.994
		c7.908,7.034,15.774,13.888,23.651,20.794c12.411-0.942,25.092-1.975,37.503-2.917c-8.075-6.404-16.143-12.794-24.224-19.226
		C3318.507,2068.093,3306.288,2068.52,3293.888,2068.994z M3268.438,2045.903c7.611,6.869,15.289,14.056,22.885,20.832
		c12.316-0.474,24.431-0.891,36.665-1.34c-8.121-6.467-16.222-12.878-24.38-19.486
		C3291.961,2045.892,3280.098,2045.92,3268.438,2045.903z M3243.099,2022.698c7.581,6.901,15.203,14.014,22.765,20.852
		c11.557,0.009,23.35-0.026,34.896-0.011c-7.673-6.228-15.504-13.008-23.197-19.319
		C3266.069,2023.714,3254.682,2023.198,3243.099,2022.698z M3217.763,1999.488c7.548,6.926,15.107,13.872,22.646,20.741
		c11.464,0.491,22.78,1.001,34.161,1.501c-7.695-6.319-15.478-12.938-23.194-19.31L3217.763,1999.488z M3192.228,1976.11
		c7.579,7.005,15.113,13.821,22.677,20.763l33.296,2.901c-7.699-6.369-15.434-12.858-23.149-19.279L3192.228,1976.11z
		 M3166.673,1952.618c7.533,7.036,14.999,13.744,22.51,20.7l32.459,4.344c-7.689-6.407-15.363-12.754-23.072-19.211
		L3166.673,1952.618z M3142.023,1929.147c7.162,6.744,14.395,13.826,21.542,20.508l31.324,5.729
		c-7.726-6.478-15.385-12.711-23.131-19.257C3161.852,1933.802,3152.002,1931.496,3142.023,1929.147z M3117.269,1905.578
		c7.122,6.758,14.27,13.653,21.381,20.355c9.755,2.297,19.377,4.547,29.065,6.823c-7.554-6.389-15.061-12.619-22.63-19.071
		C3135.834,1910.994,3126.519,1908.27,3117.269,1905.578z M3092.598,1882.09c6.997,6.688,13.978,13.321,20.958,19.957l27.294,7.951
		c-6.949-5.931-14.029-12.3-20.995-18.284C3110.793,1888.522,3101.605,1885.247,3092.598,1882.09z M3067.954,1858.626
		c6.845,6.592,13.638,12.95,20.474,19.493c8.793,3.083,17.757,6.274,26.607,9.393c-6.924-5.959-13.926-12.175-20.865-18.175
		C3085.44,1865.776,3076.799,1862.28,3067.954,1858.626z M3043.049,1834.701c6.746,6.557,13.462,12.941,20.198,19.441
		c8.569,3.546,16.96,6.947,25.421,10.4c-6.826-5.913-13.677-11.911-20.512-17.868
		C3059.802,1842.694,3051.482,1838.763,3043.049,1834.701z M3019.523,1811.448c6.121,5.995,12.296,12.245,18.407,18.191
		c7.928,3.824,15.737,7.514,23.583,11.249c-6.575-5.739-13.129-11.399-19.72-17.181
		C3034.381,1819.636,3026.983,1815.583,3019.523,1811.448z M2996.336,1788.53c5.669,5.589,11.36,11.275,17.019,16.826
		c6.711,3.718,13.357,7.358,20.016,11.013c-6.257-5.498-12.442-10.758-18.71-16.294
		C3008.554,1796.233,3002.458,1792.404,2996.336,1788.53z M2973.847,1766.309c4.904,4.863,9.801,9.686,14.696,14.525
		c4.867,3.082,9.704,6.112,14.551,9.16c-5.44-4.823-10.86-9.577-16.31-14.431
		C2982.468,1772.469,2978.163,1769.398,2973.847,1766.309z M2953.236,1745.941c3.322,3.312,6.612,6.51,9.928,9.811
		c2.869,2.058,5.727,4.094,8.584,6.14c-3.243-2.906-6.544-5.989-9.796-8.91C2959.042,1750.63,2956.141,1748.279,2953.236,1745.941z
		 M3253.995,2070.462c7.581,7.556,15.138,14.978,22.719,22.503c12.468-0.959,25.056-1.965,37.492-2.918
		c-7.925-6.947-15.842-13.841-23.796-20.929C3278.245,2069.576,3266.267,2069.979,3253.995,2070.462z M3229.211,2045.914
		c7.517,7.525,14.991,14.809,22.505,22.288c12.159-0.48,24.06-0.891,36.122-1.343c-7.599-6.792-15.305-14.067-22.925-20.956
		C3253.064,2045.898,3241.075,2045.92,3229.211,2045.914z M3204.222,2021.094c7.565,7.661,15.061,14.909,22.609,22.464
		c11.807,0.006,23.724-0.015,35.503-0.009c-7.621-6.895-15.294-14.044-22.931-21.002
		C3227.737,2022.052,3215.895,2021.583,3204.222,2021.094z M3180.041,1996.201c7.258,7.422,14.551,15.086,21.798,22.435
		c11.572,0.483,23.307,0.957,34.868,1.442c-7.605-6.943-15.232-13.931-22.854-20.929
		C3202.582,1998.17,3191.39,1997.18,3180.041,1996.201z M3155.797,1971.251c7.247,7.462,14.494,14.962,21.729,22.367
		c11.234,0.969,22.312,1.944,33.474,2.918c-7.642-7.019-15.254-13.894-22.911-20.982L3155.797,1971.251z M3131.428,1946.172
		c7.252,7.531,14.474,14.882,21.715,22.345l31.9,4.249c-7.548-6.997-15.071-13.851-22.639-20.928L3131.428,1946.172z
		 M3106.877,1920.903c7.267,7.614,14.468,14.82,21.724,22.362l30.688,5.609c-7.245-6.786-14.58-13.951-21.844-20.8
		C3127.242,1925.678,3117.18,1923.331,3106.877,1920.903z M3083.008,1895.595c6.929,7.327,13.901,14.908,20.824,22.168
		c10.193,2.405,20.146,4.729,30.237,7.097c-7.241-6.832-14.52-13.84-21.778-20.73L3083.008,1895.595z M3059.385,1870.364
		c6.819,7.264,13.654,14.654,20.464,21.857l28.73,8.374c-7.153-6.802-14.305-13.582-21.474-20.44
		C3077.892,1876.904,3068.579,1873.597,3059.385,1870.364z M3035.811,1845.189c6.701,7.192,13.39,14.306,20.081,21.445
		c8.969,3.156,18.047,6.38,27.045,9.546c-7.039-6.745-14.025-13.264-21.08-20.071
		C3053.216,1852.507,3044.412,1848.763,3035.811,1845.189z M3012.23,1820.006c6.569,7.108,13.093,13.929,19.645,20.982
		c8.325,3.457,16.806,7.051,25.192,10.559c-6.839-6.608-13.697-13.295-20.547-19.96
		C3028.436,1827.733,3020.423,1823.969,3012.23,1820.006z M2988.605,1794.43c6.377,6.963,12.749,13.853,19.122,20.759
		c7.959,3.857,15.794,7.577,23.676,11.336c-6.483-6.312-13.021-12.91-19.508-19.273
		C3004.144,1802.997,2996.435,1798.789,2988.605,1794.43z M2966.039,1769.454c5.893,6.478,11.822,13.165,17.709,19.603
		c7.392,4.119,14.665,8.081,21.979,12.096c-6.226-6.117-12.474-12.331-18.71-18.49
		C2980.036,1778.282,2973.065,1773.922,2966.039,1769.454z M2943.725,1744.76c5.488,6.078,10.98,12.175,16.457,18.212
		c6.388,4.067,12.712,8.018,19.043,11.992c-5.877-5.822-11.739-11.561-17.627-17.42
		C2955.647,1753.295,2949.703,1749.065,2943.725,1744.76z M2921.934,1720.632c4.788,5.347,9.563,10.571,14.347,15.884
		c4.898,3.534,9.761,6.994,14.628,10.466c-5.434-5.426-10.812-10.609-16.253-16.065
		C2930.414,1727.49,2926.182,1724.085,2921.934,1720.632z M2901.485,1698.001c3.405,3.82,6.779,7.462,10.178,11.268
		c2.478,2.016,4.94,3.989,7.408,5.99c-3.646-3.678-7.335-7.562-10.986-11.255C2905.883,1701.994,2903.687,1700.01,2901.485,1698.001
		z M3213.77,2072.165c7.247,7.968,14.514,16.122,21.75,24.007c12.712-0.999,25.395-1.984,38.054-2.963
		c-7.616-7.562-15.21-15.019-22.832-22.612C3238.508,2071.098,3226.009,2071.665,3213.77,2072.165z M3190.005,2045.929
		c7.241,8.015,14.477,16.009,21.708,23.966c12.167-0.495,24.587-1.056,36.754-1.551c-7.559-7.527-15.082-14.848-22.646-22.424
		C3213.911,2045.914,3201.969,2045.923,3190.005,2045.929z M3166.079,2019.517c7.272,8.13,14.523,16.009,21.792,24.059
		c11.879-0.011,23.739-0.017,35.572-0.017c-7.564-7.576-15.093-14.928-22.672-22.611
		C3189.245,2020.47,3177.642,2019.995,3166.079,2019.517z M3142.35,1992.967c7.179,8.107,14.343,16.086,21.511,24.101
		c11.506,0.478,23.052,0.949,34.527,1.426c-7.304-7.41-14.656-15.128-21.97-22.612
		C3165.111,1994.91,3153.694,1993.941,3142.35,1992.967z M3119.144,1966.371c6.986,7.968,13.998,16.15,20.973,24.039
		c11.24,0.963,22.578,1.927,33.786,2.891c-7.298-7.468-14.608-15.024-21.917-22.555L3119.144,1966.371z M3095.831,1939.661
		c6.992,8.042,13.978,16.052,20.958,24.02l32.543,4.332c-7.32-7.545-14.613-14.965-21.937-22.575L3095.831,1939.661z
		 M3072.398,1912.811c6.997,8.118,13.963,15.961,20.949,24.003l31.214,5.713c-7.339-7.641-14.634-14.916-21.989-22.634
		C3092.494,1917.524,3082.597,1915.217,3072.398,1912.811z M3049.093,1885.711c6.887,8.066,13.763,16.049,20.641,24.043
		c10.062,2.375,19.886,4.677,29.851,7.014c-6.992-7.341-14.046-15.07-21.048-22.475
		C3068.724,1891.434,3058.957,1888.595,3049.093,1885.711z M3026.368,1858.709c6.659,7.868,13.338,15.949,19.987,23.747
		c9.73,2.847,19.35,5.646,29.023,8.461c-6.94-7.352-13.906-14.856-20.85-22.268
		C3045.161,1865.348,3035.74,1862.016,3026.368,1858.709z M3003.63,1831.692c6.586,7.848,13.17,15.679,19.745,23.466
		c9.21,3.244,18.455,6.519,27.654,9.759c-6.856-7.323-13.711-14.593-20.578-21.976
		C3021.532,1839.211,3012.515,1835.399,3003.63,1831.692z M2980.854,1804.627c6.497,7.811,12.962,15.373,19.454,23.117
		c8.688,3.624,17.493,7.342,26.207,10.993c-6.767-7.286-13.489-14.296-20.266-21.643
		C2997.81,1812.964,2989.247,1808.705,2980.854,1804.627z M2958.448,1777.709c6.215,7.54,12.42,14.956,18.631,22.433
		c8.141,3.965,16.418,8.072,24.613,12.089c-6.47-7.025-12.962-14.218-19.443-21.3
		C2974.336,1786.551,2966.422,1782.176,2958.448,1777.709z M2936.744,1751.01c5.862,7.159,11.745,14.539,17.601,21.652
		c7.69,4.306,15.388,8.635,23.047,12.895c-6.242-6.832-12.52-13.888-18.773-20.774
		C2951.341,1760.21,2944.101,1755.706,2936.744,1751.01z M2914.921,1724.147c5.726,7.056,11.454,14.135,17.175,21.139
		c6.955,4.447,13.796,8.703,20.672,13.014c-6.027-6.645-12.057-13.316-18.084-20.012
		C2928.107,1733.599,2921.549,1728.955,2914.921,1724.147z M2893.176,1697.391c5.372,6.665,10.724,13.17,16.086,19.794
		c6.033,4.38,11.994,8.601,17.97,12.857c-5.732-6.379-11.432-12.581-17.168-19.002
		C2904.447,1706.52,2898.835,1702.014,2893.176,1697.391z M2871.614,1670.842c4.779,5.983,9.526,11.666,14.301,17.612
		c4.648,3.807,9.261,7.505,13.873,11.218c-5.045-5.67-10.084-11.274-15.138-16.977
		C2880.308,1678.758,2875.976,1674.847,2871.614,1670.842z M2854.762,1649.386c2.655,3.344,5.326,6.829,7.981,10.161
		c2.758,2.541,5.502,5.004,8.246,7.499c-2.843-3.229-5.706-6.568-8.549-9.801
		C2859.881,1654.614,2857.324,1652.016,2854.762,1649.386z M3173.497,2073.869c6.981,8.452,13.983,17.164,20.958,25.501
		c12.782-1.019,25.37-1.972,38.071-2.963c-7.272-7.937-14.566-16.101-21.844-24.111
		C3198.345,2072.801,3185.86,2073.352,3173.497,2073.869z M3150.649,2045.946c6.991,8.541,13.992,17.178,20.984,25.646
		c12.303-0.515,24.718-1.056,36.993-1.562c-7.272-8.015-14.549-16.035-21.833-24.101
		C3174.742,2045.935,3162.774,2045.923,3150.649,2045.946z M3127.733,2017.932c6.997,8.63,13.992,17.108,20.99,25.654
		c12.062-0.017,23.952-0.006,35.937-0.011c-7.309-8.104-14.599-16.009-21.922-24.195
		C3151.075,2018.896,3139.452,2018.406,3127.733,2017.932z M3104.854,1989.77c6.969,8.691,13.919,17.138,20.879,25.727
		c11.651,0.469,23.202,0.957,34.785,1.436c-7.183-8.05-14.378-16.118-21.572-24.257L3104.854,1989.77z M3082.576,1961.514
		c6.753,8.507,13.524,17.293,20.277,25.721c11.282,0.962,22.609,1.921,33.86,2.884c-7.034-7.962-14.093-16.185-21.136-24.221
		L3082.576,1961.514z M3060.211,1933.147c6.759,8.597,13.515,17.195,20.268,25.71l32.745,4.348
		c-7.045-8.046-14.094-16.112-21.147-24.231L3060.211,1933.147z M3037.686,1904.577c6.782,8.708,13.546,17.149,20.323,25.773
		l31.584,5.776c-7.063-8.135-14.103-16.046-21.177-24.263C3058.244,1909.458,3047.811,1906.969,3037.686,1904.577z
		 M3015.483,1875.915c6.623,8.587,13.24,17.174,19.856,25.678c10.02,2.37,20.343,4.834,30.413,7.218
		c-6.915-8.047-13.844-16.174-20.762-24.298C3035.141,1881.644,3025.411,1878.82,3015.483,1875.915z M2993.603,1847.142
		c6.492,8.505,12.999,17.196,19.486,25.617c9.814,2.88,19.428,5.666,29.164,8.504c-6.753-7.931-13.535-16.113-20.294-24.113
		C3012.521,1853.823,3003.077,1850.496,2993.603,1847.142z M2971.655,1818.282c6.45,8.53,12.905,16.991,19.351,25.445
		c9.344,3.307,18.652,6.585,27.961,9.872c-6.705-7.947-13.416-15.903-20.132-23.917
		C2989.792,1825.895,2980.692,1822.061,2971.655,1818.282z M2949.604,1789.284c6.407,8.552,12.795,16.776,19.199,25.248
		c8.887,3.722,17.825,7.482,26.71,11.201c-6.657-7.952-13.289-15.68-19.954-23.704
		C2966.924,1797.8,2958.213,1793.488,2949.604,1789.284z M2928.296,1760.581c6.033,8.124,12.083,16.45,18.115,24.507
		c8.424,4.114,16.935,8.326,25.374,12.461c-6.325-7.635-12.667-15.362-19.006-23.06
		C2944.632,1769.877,2936.401,1765.143,2928.296,1760.581z M2907.373,1732.094c5.831,7.917,11.671,15.966,17.497,23.82
		c7.887,4.443,15.884,9.036,23.807,13.53c-6.049-7.364-12.125-14.957-18.178-22.371
		C2922.823,1742.135,2915.046,1737.021,2907.373,1732.094z M2886.497,1703.666c5.638,7.724,11.276,15.363,16.914,23.029
		c7.403,4.763,14.946,9.768,22.374,14.576c-6.053-7.422-12.103-14.863-18.157-22.342
		C2900.6,1713.882,2893.571,1708.827,2886.497,1703.666z M2865.397,1674.935c5.456,7.536,10.896,14.78,16.347,22.264
		c6.742,4.916,13.504,9.894,20.22,14.763c-5.905-7.306-11.787-14.414-17.695-21.772
		C2877.99,1685.148,2871.733,1680.149,2865.397,1674.935z M2845.319,1646.933c4.801,6.676,9.611,13.639,14.406,20.273
		c5.794,4.776,11.541,9.411,17.283,14.047c-5.3-6.619-10.606-13.312-15.909-19.977
		C2855.851,1656.536,2850.613,1651.823,2845.319,1646.933z M2826.551,1620.49c4.103,5.753,8.209,11.612,12.306,17.335
		c4.483,4.156,8.924,8.145,13.365,12.154c-4.274-5.388-8.569-10.939-12.843-16.35
		C2835.106,1629.264,2830.841,1624.931,2826.551,1620.49z M2810.013,1597.186c2.566,3.63,5.131,7.238,7.698,10.852
		c2.676,2.781,5.335,5.472,8.002,8.197c-2.764-3.52-5.53-7.036-8.294-10.562C2814.948,1602.83,2812.485,1600.044,2810.013,1597.186z
		 M3964.254,2050.737l7.607-0.661c-3.041,0.052-6.106,0.108-9.162,0.165l-6.169,0.35L3964.254,2050.737z M3922.55,2054.344
		c6.498-0.582,12.9-1.124,19.318-1.672l-16.779-0.312c-6.215,0.349-12.409,0.693-18.642,1.047
		C3911.805,2053.72,3917.156,2054.038,3922.55,2054.344z M3880.96,2057.995c8.501-0.776,16.92-1.516,25.296-2.239
		c-6.852-0.39-13.577-0.796-20.424-1.188c-8.47,0.469-16.929,0.938-25.456,1.432L3880.96,2057.995z M3840.548,2061.838
		c9.287-0.859,18.705-1.771,28.08-2.671l-23.719-2.297c-9.517,0.526-19.001,1.042-28.642,1.609L3840.548,2061.838z
		 M3799.56,2065.739c10.235-0.963,20.532-1.953,30.789-2.927l-26.321-3.64c-10.198,0.573-20.398,1.15-30.762,1.781L3799.56,2065.739
		z M3758.487,2069.65c10.844-1.042,21.642-2.061,32.438-3.088l-27.394-4.989c-10.516,0.666-21.094,1.358-31.568,2.01
		C3740.829,2065.614,3749.704,2067.651,3758.487,2069.65z M3716.948,2073.604c11.454-1.121,22.731-2.169,34.073-3.241
		c-9.052-2.068-18.2-4.166-27.326-6.255c-11.16,0.71-22.354,1.429-33.537,2.135
		C3699.097,2068.702,3707.927,2071.109,3716.948,2073.604z M3675.61,2077.541c11.733-1.167,23.155-2.209,34.738-3.307
		c-9.234-2.558-18.2-4.99-27.408-7.531c-11.251,0.713-22.474,1.416-33.792,2.15L3675.61,2077.541z M3634.435,2081.779
		c11.693-1.178,23.662-2.469,35.381-3.662l-26.999-8.858c-11.688,0.74-23.254,1.448-35.055,2.23
		C3616.675,2074.936,3625.602,2078.399,3634.435,2081.779z M3592.842,2086.085c12.097-1.238,24.337-2.535,36.434-3.77
		c-8.995-3.448-18.075-6.963-27.138-10.469c-11.941,0.777-23.807,1.533-35.864,2.35
		C3575.162,2078.191,3584.08,2082.221,3592.842,2086.085z M3551.502,2090.366c12.233-1.271,24.457-2.541,36.644-3.791
		c-8.867-3.911-17.882-7.989-26.863-12.025c-12.025,0.833-24.232,1.734-36.249,2.568
		C3533.906,2081.602,3542.661,2085.924,3551.502,2090.366z M3510.162,2094.646c12.384-1.306,24.607-2.552,36.908-3.822
		c-8.859-4.453-17.684-8.864-26.591-13.384c-12.083,0.843-24.249,1.718-36.358,2.572
		C3492.816,2084.909,3501.437,2089.69,3510.162,2094.646z M3468.613,2098.949c12.635-1.353,24.942-2.578,37.452-3.88
		c-8.799-5.004-17.481-9.801-26.247-14.749c-12.162,0.86-24.302,1.708-36.519,2.588
		C3451.72,2088.22,3460.148,2093.548,3468.613,2098.949z M3427.159,2103.453c12.51-1.359,25.144-2.77,37.617-4.11
		c-8.521-5.446-17.008-10.8-25.487-16.154c-12.329,0.88-24.525,1.709-36.951,2.619
		C3410.604,2091.674,3418.876,2097.542,3427.159,2103.453z M3385.652,2108.083c12.573-1.379,25.358-2.855,37.92-4.229
		c-8.351-5.964-16.679-11.874-25.01-17.778c-12.452,0.9-24.707,1.729-37.274,2.671L3385.652,2108.083z M3343.667,2112.77
		c12.854-1.433,25.77-2.89,38.582-4.307c-8.169-6.483-16.332-12.968-24.499-19.44c-12.494,0.948-25.254,1.984-37.748,2.938
		C3327.888,2098.876,3335.775,2105.827,3343.667,2112.77z M3301.464,2117.482c13.062-1.473,26.007-2.904,38.991-4.352
		c-7.934-6.985-15.856-13.963-23.781-20.91c-12.525,0.959-25.195,1.963-37.751,2.937
		C3286.445,2102.641,3293.976,2110.187,3301.464,2117.482z M3259.69,2122.143c13.036-1.488,25.796-2.869,38.738-4.322
		c-7.528-7.333-15.092-14.91-22.64-22.42c-12.733,0.986-25.482,1.976-38.268,2.98
		C3244.923,2106.411,3252.298,2114.198,3259.69,2122.143z M3217.851,2126.892c13.058-1.51,25.906-2.941,38.874-4.415
		c-7.397-7.962-14.786-15.811-22.198-23.866c-12.74,0.993-25.37,1.952-38.19,2.973
		C3203.515,2110.114,3210.677,2118.393,3217.851,2126.892z M0,2616.674c203.988-23.231,409.848-53.405,617.334-91.645
		c978.454-180.322,1838.861-309.758,2597.69-397.798c-7.21-8.546-14.404-16.843-21.614-25.419
		c-739.792,59.082-1576.397,151.668-2526.053,286.052C443.655,2420.303,221.041,2443.857,0,2459.829v-2.369
		c220.933-15.968,443.436-39.505,667.023-71.928h0.006c948.964-134.284,1785.231-226.893,2524.497-285.938
		c-6.982-8.357-13.994-17.134-20.986-25.6c-720.42,30.116-1533.162,85.964-2453.588,174.384v0.006
		c-239.464,24.7-478.71,39.818-716.953,46.937v-2.36c238.169-7.117,477.331-22.232,716.714-46.924h0.011
		c919.712-88.349,1731.849-144.16,2451.951-174.318c-7.026-8.519-14.06-17.184-21.089-25.771
		c-701.048,1.223-1490.062,20.439-2381.043,62.949C511.702,2123.795,255.79,2128.617,0,2125.3v-2.359
		c255.75,3.321,511.617-1.499,766.414-16.398h0.006c890.201-42.475,1678.61-61.692,2379.242-62.952
		c-7.038-8.602-14.066-17.1-21.103-25.788c-681.783-27.641-1446.792-45.088-2308.433-48.4
		c-269.742,2.875-542.368-4.51-816.125-19.852v-2.359c273.757,15.347,546.377,22.733,816.115,19.858h0.005
		c860.791,3.312,1625.18,20.715,2306.442,48.316c-6.975-8.62-13.952-17.149-20.933-25.872
		c-662.458-56.487-1403.599-110.527-2235.935-159.579C581.627,1818.365,292.221,1796.764,0,1767.839v-2.369
		c292.269,28.935,581.71,50.542,865.81,62.091h0.026c831.437,48.993,1571.879,102.971,2233.791,159.397
		c-6.795-8.495-13.614-17.315-20.413-25.888c-643.249-85.328-1360.764-175.942-2163.937-270.654
		C617.558,1661.884,311.29,1624.026,0,1580.032v-2.38c311.389,44.014,617.74,81.885,915.521,110.423h0.022
		c802.198,94.597,1518.934,185.102,2161.578,270.335c-6.808-8.587-13.618-17.236-20.433-25.902l-254.317-46.531
		c-557.086-101.929-1167.553-213.629-1837.513-335.055C654.285,1502.676,331.047,1446.475,0,1385.989v-2.396
		c331.218,60.524,654.597,116.751,965.231,165.006l0.031,0.003c670.964,121.61,1280.918,233.215,1837.53,335.058l251.693,46.05
		c-6.839-8.711-13.666-17.215-20.51-26.016c-604.648-142.879-1274.435-306.435-2019.527-492.271
		c-216.944-47.66-443.547-98.295-676.29-150.299C226.79,1236.243,113.967,1211.037,0,1185.66v-2.412
		c114.14,25.413,227.128,50.661,338.663,75.578c231.745,51.78,457.374,102.195,676.279,150.288l0.037,0.011
		c743.931,185.545,1412.74,348.866,2016.647,491.588c-6.646-8.55-13.3-17.273-19.954-25.912
		c-585.598-171.688-1231.606-371.619-1947.695-602.903C730.739,1175.411,373.1,1076.287,0,979.04v-2.432
		c373.349,97.306,731.222,196.495,1064.67,293.042l0.031,0.005c714.819,230.871,1359.837,430.523,1944.571,601.996
		c-6.569-8.541-13.155-17.321-19.73-25.939c-566.415-200.386-1188.699-436.6-1875.973-713.32
		C770.746,1007.062,395.601,883.401,0,766.202v-2.458c395.902,117.273,771.328,241.017,1114.386,366.432l0.037,0.017
		c685.89,276.156,1307.044,511.981,1872.522,712.101c-6.549-8.598-13.104-17.171-19.658-25.845
		c-547.278-229.128-1145.855-501.583-1804.154-823.583C812.117,835.365,419.224,685.197,0,547.273v-2.479
		C419.589,682.818,812.819,833.095,1164.106,990.72l0.037,0.022c656.768,321.249,1254.064,593.168,1800.292,821.957
		c-6.529-8.651-13.047-17.014-19.585-25.747c-528.091-257.868-1102.917-566.488-1732.135-933.604
		C855.013,660.212,444.129,481.588,0,322.37v-2.501C444.551,479.203,855.825,657.967,1213.828,851.27l0.031,0.017
		c627.521,366.123,1200.897,674.027,1727.799,931.468c-6.117-8.186-12.264-16.775-18.387-25.029
		c-509.041-286.582-1060.51-631.595-1661.002-1043.923C899.622,481.522,470.314,272.778,0,91.982v-2.515
		c470.804,180.93,900.56,389.856,1263.55,622.358l0.031,0.015c598.661,411.073,1148.556,755.201,1656.26,1041.22
		c-6.024-8.133-12.057-16.429-18.09-24.626C2411.81,1413.235,1883.654,1031.742,1311.856,574.27h-0.006
		C1029.118,361.661,697.155,169.706,331.073,0h5.581c364.422,169.254,694.933,360.573,976.612,572.383l0.026,0.028
		c569.726,455.814,1096.082,836.136,1584.496,1150.622c-5.913-8.055-11.822-16.035-17.735-24.153
		c-470.835-343.784-975.565-761.672-1518.622-1264.156h-0.006C1183.052,278.433,980.844,133.487,759.705,0h4.538
		c219.96,132.998,421.15,277.36,598.734,432.949l0.026,0.026c540.661,500.265,1043.273,916.57,1512.297,1259.437
		c-5.769-7.93-11.521-15.549-17.295-23.543c-451.636-372.316-932.798-826.447-1447.02-1373.715
		C1309.246,191.843,1198.008,93.514,1078.636,0h3.816c118.558,93.029,229.089,190.818,330.235,293.519l0.015,0.02
		c511.531,544.399,990.283,996.477,1439.837,1367.632c-5.118-7.102-10.255-14.507-15.379-21.658
		c-432.801-401.016-890.704-891.432-1376.569-1483.889C1415.259,102.465,1367.6,50.618,1317.872,0h3.328
		c49.175,50.128,96.314,101.47,141.182,154.094l0.017,0.016c482.694,588.595,937.797,1076.492,1368.079,1475.988
		c-4.843-6.782-9.689-13.651-14.531-20.472c-413.892-429.759-848.392-956.128-1305.758-1593.556
		c-3.998-5.401-8.163-10.697-12.204-16.071h2.959c3.684,4.905,7.491,9.739,11.135,14.663l0.011,0.017
		c453.416,631.919,884.373,1154.857,1295.008,1582.483c-4.2-5.936-8.391-11.778-12.599-17.747
		C2423.711,1148.93,2038.663,626.876,1638.051,0h2.795c394.398,617.055,773.703,1132.532,1139.15,1558.981
		c-2.582-3.687-5.159-7.286-7.736-10.982C2443.04,1121.314,2104.758,609.108,1756.884,0h2.727
		c337.139,590.138,665.229,1088.975,984.807,1507.462C2454.096,1086.865,2158.872,587.756,1858.675,0h2.628
		c309.532,606.05,613.785,1118.028,912.793,1546.515c15.072,19.532,30.075,38.422,45.105,57.596
		c14.997,17.284,29.979,34.48,44.932,51.474c15.127,15.508,30.313,31.25,45.395,46.498c18.011,16.389,36.102,33.048,54.027,49.135
		c17.252,13.878,34.681,28.263,51.845,41.905c17.908,12.719,36.108,26.081,53.917,38.579c20.507,12.795,41.096,25.731,61.461,38.288
		c20.62,11.232,41.11,22.277,61.586,33.302c20.666,9.75,41.048,19.191,61.56,28.773c20.844,8.425,41.465,16.665,62.137,24.951
		c21.214,7.258,42.501,14.57,63.538,21.714c22.051,6.296,44.578,12.811,66.447,19.018c23.926,5.547,47.962,11.136,71.69,16.622
		l69.27,12.635c24.321,3.323,48.539,6.63,72.632,9.931c24.5,2.291,48.888,4.582,73.147,6.875c25.489,1.358,50.581,2.76,75.767,4.144
		c26.18,0.406,52.069,0.863,77.933,1.329c25.507-0.5,50.772-0.938,76.109-1.391c27.686-1.468,54.87-2.77,82.258-4.141
		c341.616-28.792,659.299-48.107,955.149-59.138v2.271c-276.745,10.316-572.521,27.857-889.227,53.66
		c316.887-15.002,612.644-22.97,889.227-24.866v2.348c-295.683,2.026-613.331,11.01-955.232,28.09
		c-1.745,0.147-3.524,0.308-5.269,0.454c344.108-5.027,663.458-3.469,960.5,3.613v2.35c-306.548-7.312-636.944-8.714-993.703-3.088
		l-19.684,1.707c364.501,7.51,701.326,20.337,1013.387,37.417v2.402c-318.434-17.441-662.667-30.438-1035.766-37.881
		c-8.453,0.73-16.883,1.443-25.416,2.203c383.022,22.148,735.643,47.644,1061.182,75.536v2.362
		c-330.15-28.288-688.145-54.119-1077.476-76.487c-9.622,0.817-19.199,1.62-28.986,2.51
		c400.633,38.887,768.178,78.403,1106.461,117.788v2.375c-341.838-39.802-713.553-79.734-1119.108-119.021
		c-10.047,0.948-20.26,1.958-30.257,2.881c417.319,57.766,799.04,112.572,1149.364,163.994v2.385
		c-353.177-51.837-738.271-107.123-1159.563-165.406c-10.78,1.019-21.625,2.067-32.376,3.083
		c433.916,78.974,829.604,150.376,1191.938,214.305v2.396c-364.729-64.351-763.28-136.284-1200.574-215.884
		c-11.203,1.062-22.422,2.129-33.667,3.208c450.309,102.669,859.887,191.949,1234.241,268.711v2.401
		c-376.427-77.183-788.472-167.026-1241.701-270.403c-11.645,1.104-23.228,2.187-34.973,3.333
		c466.659,129.077,890.169,237.528,1276.673,327.296v2.432c-388.328-90.186-814.016-199.229-1283.274-329.104
		c-11.849,1.13-23.546,2.198-35.546,3.386c482.672,158.327,920.029,287.17,1318.82,389.933v2.432
		c-400.41-103.164-839.704-232.627-1324.676-391.809c-11.938,1.204-24.136,2.51-36.067,3.714
		c498.405,190.663,949.525,341.024,1360.744,456.441v2.447c-412.649-115.808-865.472-266.789-1365.902-458.352
		c-12.27,1.255-24.701,2.572-36.977,3.827c513.913,226.363,978.881,399.304,1402.879,526.802v2.452
		c-425.299-127.858-891.818-301.444-1407.575-528.77c-12.292,1.266-24.641,2.552-36.978,3.833
		C4084.224,2357.764,4562.926,2554.144,5000,2692.8v2.567c-438.303-139.007-918.473-336.08-1448.989-602.588
		c-12.426,1.281-24.789,2.541-37.3,3.857c543.099,308.248,1035.6,528.861,1486.288,677.477v2.558
		c-451.844-148.966-945.684-370.23-1490.385-679.606c-12.63,1.312-25.055,2.552-37.799,3.91
		c556.862,355.068,1063.237,600.325,1528.185,757.195v2.583c-466.031-157.168-973.655-403.1-1532.017-759.381
		c-12.597,1.354-25.305,2.75-37.955,4.124C3967.46,2488.456,4460.942,2750.678,4917.987,2916h-7.445
		c-455.993-165.802-948.218-427.981-1484.101-810.11c-12.644,1.391-25.524,2.875-38.179,4.266
		c464.176,368.088,898.237,630.29,1306.59,805.845h-6.365c-407.507-175.894-840.598-438.027-1303.63-805.465
		c-12.885,1.423-25.878,2.891-38.805,4.333c404.471,355.793,788.523,617.629,1154.633,801.132h-5.44
		c-365.454-183.742-748.772-445.484-1152.406-800.772c-13.066,1.453-26.097,2.895-39.232,4.38
		c355.047,345.533,696.584,606.625,1025.928,796.392h-4.784c-328.819-189.935-669.778-450.937-1024.184-796.055
		c-12.979,1.453-25.784,2.839-38.866,4.338c313.461,336.723,618.488,596.992,915.62,791.716h-4.56
		c-296.641-194.881-601.143-455.092-914.022-791.388c-13.041,1.484-25.931,2.906-39.066,4.431
		c277.948,329.052,551.209,588.179,819.875,786.956h-4.097c-268.264-198.865-541.11-457.925-818.604-786.619
		c-759.135,88.036-1620.01,217.53-2599.085,397.965c-207.631,38.266-413.639,68.456-617.76,91.698V2616.674z"/>
</g>
</svg>
