<?xml version="1.0" encoding="UTF-8" standalone="no"?>
<!-- Created with Inkscape (http://www.inkscape.org/) -->

<svg
   width="1080"
   height="1080"
   viewBox="0 0 285.74999 285.75"
   version="1.1"
   id="svg1"
   xml:space="preserve"
   xmlns:xlink="http://www.w3.org/1999/xlink"
   xmlns="http://www.w3.org/2000/svg"
   xmlns:svg="http://www.w3.org/2000/svg"><defs
     id="defs1"><linearGradient
       id="linearGradient9"><stop
         style="stop-color:#399f26;stop-opacity:1;"
         offset="0"
         id="stop9" /><stop
         style="stop-color:#70df3d;stop-opacity:1;"
         offset="1"
         id="stop10" /></linearGradient><linearGradient
       id="linearGradient7"><stop
         style="stop-color:#399f26;stop-opacity:1;"
         offset="0"
         id="stop7" /><stop
         style="stop-color:#6ecd5d;stop-opacity:1;"
         offset="1"
         id="stop8" /></linearGradient><linearGradient
       id="linearGradient5"><stop
         style="stop-color:#399f26;stop-opacity:1;"
         offset="0"
         id="stop5" /><stop
         style="stop-color:#78bc69;stop-opacity:1;"
         offset="1"
         id="stop6" /></linearGradient><linearGradient
       id="linearGradient3"><stop
         style="stop-color:#399f26;stop-opacity:1;"
         offset="0"
         id="stop3" /><stop
         style="stop-color:#41ff21;stop-opacity:1;"
         offset="1"
         id="stop4" /></linearGradient><linearGradient
       id="linearGradient1"><stop
         style="stop-color:#399f26;stop-opacity:1;"
         offset="0"
         id="stop1" /><stop
         style="stop-color:#71d857;stop-opacity:1;"
         offset="1"
         id="stop2" /></linearGradient><rect
       x="50.176487"
       y="57.344559"
       width="335.46567"
       height="405.71274"
       id="rect32" /><rect
       x="91.751289"
       y="87.450447"
       width="263.78497"
       height="338.33289"
       id="rect31" /><rect
       x="50.176487"
       y="57.344559"
       width="335.46567"
       height="405.71274"
       id="rect32-4" /><rect
       x="50.176487"
       y="57.344559"
       width="335.46567"
       height="405.71274"
       id="rect32-5" /><linearGradient
       xlink:href="#linearGradient1"
       id="linearGradient2"
       x1="215.17464"
       y1="132.99248"
       x2="242.4892"
       y2="132.99248"
       gradientUnits="userSpaceOnUse" /><linearGradient
       xlink:href="#linearGradient3"
       id="linearGradient4"
       x1="88.201172"
       y1="168.87781"
       x2="174.33105"
       y2="168.87781"
       gradientUnits="userSpaceOnUse" /><linearGradient
       xlink:href="#linearGradient5"
       id="linearGradient6"
       x1="53.802734"
       y1="139.64931"
       x2="134.87891"
       y2="139.64931"
       gradientUnits="userSpaceOnUse" /><linearGradient
       xlink:href="#linearGradient7"
       id="linearGradient8"
       x1="53.802734"
       y1="139.64931"
       x2="134.87891"
       y2="139.64931"
       gradientUnits="userSpaceOnUse" /><linearGradient
       xlink:href="#linearGradient9"
       id="linearGradient10"
       x1="53.802734"
       y1="139.64931"
       x2="134.87891"
       y2="139.64931"
       gradientUnits="userSpaceOnUse" /></defs><g
     id="layer1"
     style="display:inline;fill:none;stroke:none"
     transform="translate(-10.012981,10.996207)"><path
       style="display:inline;opacity:1;fill:#f0f0f0;fill-opacity:1;stroke:#7b4937;stroke-width:1.32292;stroke-dasharray:none;stroke-opacity:1"
       d="m 157.22414,192.5 c -52.79896,23.5791 -56.3036,27.51651 -66.758623,43.43103 l 97.862073,3.4138 c 1.51029,-1.56147 1.89479,-6.8756 1.89655,-13.46552 l -4.36207,-10.81035 c 5.16321,8.18622 9.93917,16.95331 15.55172,24.46552 15.48851,1.0116 30.97701,1.12218 46.46552,-1.13793 9.69855,-12.5451 -27.09605,-37.14403 -43.62069,-48.93103 z"
       id="path28" /><path
       style="display:inline;opacity:1;fill:#2f3e4e;fill-opacity:1;stroke:#7b4937;stroke-width:1.32292;stroke-dasharray:none;stroke-opacity:1"
       d="m 137.61381,203.90583 c -20.41904,10.96502 -25.86292,11.88049 -32.92416,14.67176 5.94253,9.60919 18.96552,9.9885 39.06897,1.13793 -0.63218,3.38218 -4.42529,7.52299 -11.37931,12.42241 12.39559,-0.81664 25.2236,-1.09495 25.56882,-16.91307 -0.25898,-17.46317 -10.18053,-14.63495 -20.33432,-11.31903 z"
       id="path27" /><path
       style="display:inline;opacity:1;fill:#2f3e4e;fill-opacity:1;stroke:#7b4937;stroke-width:1.32292;stroke-dasharray:none;stroke-opacity:1"
       d="m 203.03718,195.259 c -39.18137,38.26495 -72.12844,16.09479 -74.83141,-14.75171 z"
       id="path26" /><g
       id="g20"
       style="display:inline;fill:none;stroke:none"><path
         style="display:inline;opacity:1;fill:#fff4e6;fill-opacity:1;stroke:none;stroke-width:1.32292;stroke-dasharray:none;stroke-opacity:0.996078"
         d="m 127.91932,179.26838 c 17.22188,16.17022 33.74173,33.19291 80.2139,13.84492 20.26408,6.74816 17.86727,-13.93529 25.34612,-22.66399 L 201.24801,93.349155 154.75862,90.275861 117.39655,154.56896 Z"
         id="path14" /><path
         style="opacity:1;fill:#f9cab8;fill-opacity:1;stroke:none;stroke-width:1.32292;stroke-dasharray:none;stroke-opacity:0.996078"
         d="m 160.16093,157.33055 c -2.3689,-2.94979 -5.21779,-5.98685 -9.09001,-9.20997 -11.27913,-2.46205 -14.05531,1.40788 -17.16562,5.029 -0.56378,9.37758 1.88371,18.76008 14.34939,19.51249 5.29531,0.18905 9.05852,-5.0127 12.30884,-11.91637 0.47297,-1.0046 0.29268,-2.54938 -0.4026,-3.41515 z"
         id="path15" /><path
         style="opacity:1;fill:#f9cab8;fill-opacity:1;stroke:none;stroke-width:1.32292;stroke-dasharray:none;stroke-opacity:0.996078"
         d="m 211.35178,167.43191 c -2.5842,-1.62736 -5.28106,-2.83094 -8.04639,-2.68213 -7.52421,3.34919 -6.64421,8.71207 -4.82783,12.74012 6.30011,4.64195 13.84317,0.38042 18.03732,-6.03479 -1.52171,-1.4208 -2.79889,-2.93941 -5.1631,-4.0232 z"
         id="path16" /><path
         style="display:inline;opacity:1;fill:#e49083;fill-opacity:1;stroke:#c47f84;stroke-width:1.32292;stroke-dasharray:none;stroke-opacity:1"
         d="m 168.74569,159.64224 c 4.40739,7.98552 8.82782,5.1543 12.99138,3.50862 2.24247,2.56588 4.06123,6.0624 6.78017,3.98277 7.40981,12.93264 -7.61477,15.57251 -12.42241,15.1724 -6.78256,-0.99126 -17.484,-9.19425 -9.10345,-17.92241 0.006,-2.83369 1.05497,-4.02621 1.75431,-4.74138 z"
         id="path17" /><ellipse
         style="display:inline;opacity:1;fill:#35434c;fill-opacity:1;stroke:none;stroke-width:1.77801;stroke-dasharray:none;stroke-opacity:1"
         id="path18"
         cx="38.042233"
         cy="209.94223"
         rx="5.7408633"
         ry="6.6858521"
         transform="matrix(0.81085005,-0.58525396,0.60375627,0.79716897,0,0)" /><ellipse
         style="display:inline;fill:#35434c;fill-opacity:1;stroke:none;stroke-width:1.83835;stroke-dasharray:none;stroke-opacity:1"
         id="path18-2"
         cx="256.18256"
         cy="-37.280079"
         rx="7.0959463"
         ry="5.7824621"
         transform="matrix(0.69670927,0.71735361,-0.67679647,0.73617018,0,0)" /><path
         style="opacity:1;fill:#35434c;fill-opacity:1;stroke:none;stroke-width:1.32292;stroke-dasharray:none;stroke-opacity:1"
         d="m 171.96983,142.14655 c -4.72733,-3.39857 -7.6827,-7.2191 -10.62069,-11.09483 0.0256,2.72818 1.55648,7.49728 6.82758,11.47414 2.59441,2.44327 3.41129,0.86508 3.79311,-0.37931 z"
         id="path19" /><path
         style="opacity:1;fill:#35434c;fill-opacity:1;stroke:none;stroke-width:1.32292;stroke-dasharray:none;stroke-opacity:1"
         d="m 207.38793,142.71551 c -5.24225,0.31376 -10.59848,4.77983 -15.50431,7.11208 l 5.45259,0.23707 c 6.1879,-2.66837 8.44538,-5.5422 10.05172,-7.34915 z"
         id="path20" /></g><g
       id="g14"
       style="display:inline;fill:none;stroke:#7b4937;stroke-opacity:1"><path
         style="opacity:1;fill:#dfb47c;fill-opacity:1;stroke:#7b4937;stroke-width:1.32292;stroke-dasharray:none;stroke-opacity:1"
         d="M 138.26376,78.988705 C 125.97022,76.30123 125.80601,71.653458 131.15612,66.114485 141.57022,56.070552 157.98088,51.037447 181.44604,51.8992 v 9.789771 c -14.44779,0.535921 -38.23951,5.364368 -30.57628,12.740114 14.37516,7.886926 34.26484,12.680335 59.00685,14.751711 8.36294,-0.381361 13.31633,-6.445286 18.7749,-11.667262 -7.04462,-9.241883 -17.82839,-12.635355 -29.77163,-14.215285 l 2.41391,-8.582813 c 15.6605,-1.299117 28.26996,7.296195 36.87928,13.947071 17.97158,18.049671 -9.32414,25.571238 -21.59114,26.15076 -30.10899,-1.939073 -54.11238,-8.966154 -78.31817,-15.824562 z"
         id="path10" /><path
         style="opacity:1;fill:#ffd700;fill-opacity:1;stroke:#7b4937;stroke-width:1.05833;stroke-dasharray:none;stroke-opacity:1"
         d="m 182.99619,23.427618 -4.24619,4.167209 -3.7931,42.387932 29.39655,1.706896 2.56034,-43.999999 -2.95349,-3.164048 z"
         id="path11" /><path
         style="opacity:1;fill:#7b4937;fill-opacity:1;stroke:#7b4937;stroke-width:1.05833;stroke-dasharray:none;stroke-opacity:1"
         d="m 174.9569,69.982759 4.47015,-5.449832 z"
         id="path12" /><path
         style="opacity:1;fill:#7b4937;fill-opacity:1;stroke:#7b4937;stroke-width:1.05833;stroke-dasharray:none;stroke-opacity:1"
         d="m 204.35345,71.689655 -3.96229,-6.058739 z"
         id="path13" /><rect
         style="display:inline;opacity:1;fill:#f0c900;fill-opacity:1;stroke:#7b4937;stroke-width:1.05864;stroke-dasharray:none;stroke-opacity:1"
         id="rect10"
         width="20.992849"
         height="41.259972"
         x="184.44521"
         y="13.832421"
         transform="matrix(0.99863125,0.05230305,-0.08650368,0.99625154,0,0)" /></g><path
       id="path21"
       style="display:inline;opacity:1;fill:#f0f0f0;fill-opacity:1;stroke:#7b4937;stroke-width:1.32292;stroke-dasharray:none;stroke-opacity:1"
       d="m 73.2069,163.67218 c -6.16882,1.42954 -12.946392,3.80603 -19.914636,6.47911 -5.267895,3.34732 -7.658893,4.32954 -6.355078,5.52842 0.53866,18.38216 -2.764261,31.27623 -7.510136,42.10906 6.654332,1.9304 12.012683,-0.42559 15.38304,-9.35757 -0.743723,2.85336 -3.582473,8.40031 2.181262,10.90476 l 3.888135,-0.66352 c 6.48478,12.13095 18.706293,13.22967 31.672485,12.89637 13.533788,-12.04629 24.429978,-18.6152 34.706408,-23.89622 l 0.94826,-27.31048 z" /><g
       id="g9"
       style="display:inline;fill:#35434c;fill-opacity:1;stroke:#7b4937;stroke-width:1.32292;stroke-dasharray:none;stroke-opacity:1"><path
         style="display:inline;opacity:1;fill:#f0f0f0;fill-opacity:1;stroke:#7b4937;stroke-width:1.32292;stroke-dasharray:none;stroke-opacity:1"
         d="m 107.28517,99.775205 c 13.43125,-14.019595 30.14985,-22.602409 50.15581,-25.748441 21.19134,-1.133432 53.99866,4.756913 73.22213,42.109426 6.49669,11.48874 10.09426,21.53159 26.82129,20.6524 -3.19314,9.40125 -8.91502,13.87146 -17.16563,13.41064 5.98045,21.27109 3.73737,35.49398 2.41392,50.42403 -16.71706,-6.80217 -18.1985,-9.40032 -24.54775,-7.60479 4.62308,-5.02672 10.28849,-17.03972 -9.29882,-24.93438 16.92131,7.4674 11.72059,-1.51939 13.7306,-6.61991 -9.08603,-9.67944 -16.94796,-23.34084 -21.72525,-41.03658 -0.93981,11.07108 -6.00736,24.41241 -2.41391,32.99019 -3.25266,-0.53168 -6.30619,-0.49444 -11.26494,-5.90069 v 5.90069 c -14.49032,-9.16489 -12.25448,-24.44126 -14.4835,-38.08624 -10.68562,6.20458 -21.21608,13.18498 -31.64913,20.6524 -15.24272,30.48352 -18.32788,55.60947 -3.75498,72.95391 -9.23775,3.4202 -18.96718,1.18618 -28.69878,-1.07285 -11.351417,-3.74636 -16.545691,-11.92587 -21.725245,-20.11597 -5.249009,-7.47818 -8.527312,-15.94171 -11.80137,-24.40737 -2.659894,-18.4549 9.734627,-28.47933 19.043118,-40.23194 -10.046066,-10.58249 -9.082206,-21.35159 -4.291406,-32.185552 3.926461,5.244906 7.832577,10.514582 17.433843,8.851027 z"
         id="path1" /><path
         style="opacity:1;fill:#7b4937;fill-opacity:1;stroke:#7b4937;stroke-width:1.32292;stroke-dasharray:none;stroke-opacity:1"
         d="m 86.900985,187.74904 c -1.459568,-12.4588 3.41602,-28.34915 7.831775,-43.99042 -5.171668,12.77662 -11.564806,25.26008 -10.707939,39.48355 z"
         id="path2" /><path
         style="opacity:1;fill:#7b4937;fill-opacity:1;stroke:#7b4937;stroke-width:1.32292;stroke-dasharray:none;stroke-opacity:1"
         d="m 94.142733,123.10973 c 1.630446,-0.0648 3.744591,-3.90249 5.805543,-7.32525 l -4.077586,3.60345 c -7.114716,-5.46383 -7.07328,-13.90939 -8.431702,-21.771683 -0.202137,7.081133 -3.345628,12.452173 6.703745,25.493483 z"
         id="path3" /><path
         style="opacity:1;fill:#7b4937;fill-opacity:1;stroke:#7b4937;stroke-width:1.32292;stroke-dasharray:none;stroke-opacity:1"
         d="m 107.28517,99.775205 c -3.7778,3.946035 -4.61891,6.742945 -4.30241,9.086865 l 4.45689,-6.82759 z"
         id="path4" /><path
         style="opacity:1;fill:#7b4937;fill-opacity:1;stroke:#7b4937;stroke-width:1.32292;stroke-dasharray:none;stroke-opacity:1"
         d="m 141.07999,135.98395 c 3.07723,-8.41819 13.31052,-20.12816 25.2476,-32.62188 -8.72665,11.04912 -20.26139,22.99113 -21.84464,28.73279 z"
         id="path5" /><path
         style="opacity:1;fill:#7b4937;fill-opacity:1;stroke:#7b4937;stroke-width:1.32292;stroke-dasharray:none;stroke-opacity:1"
         d="m 172.72912,115.33155 -0.32304,-7.74965 c -0.54035,2.50323 -2.1501,6.52225 -2.53931,6.89522 L 151.644,128.62437 Z"
         id="path6" /><path
         style="opacity:1;fill:#7b4937;fill-opacity:1;stroke:#7b4937;stroke-width:1.32292;stroke-dasharray:none;stroke-opacity:1"
         d="m 222.61672,161.46418 c 2.53532,-10.01692 -1.34026,-17.73248 -5.6512,-25.29177 3.3744,8.34528 6.49615,16.6293 4.08763,23.57266 z"
         id="path7" /><path
         style="opacity:1;fill:#f0f0f0;fill-opacity:1;stroke:#7b4937;stroke-width:1.32292;stroke-dasharray:none;stroke-opacity:1"
         d="m 243.16714,163.2839 c 12.69657,6.92934 18.25327,4.60585 22.04802,-0.3757 -2.04185,18.07977 -9.06971,25.42822 -21.1784,22.51949 z"
         id="path8" /><path
         d="m 233.51419,154.3818 -1.14313,-4.18267 q -3.24496,0.46231 -5.49319,0.003 -2.23132,-0.4891 -4.28807,-2.34921 -2.03348,-1.86661 -3.15496,-5.05627 l 3.98998,-1.93955 q 1.40884,3.236 3.07225,4.47952 2.37569,1.74811 4.90869,1.33054 l -3.63899,-13.31484 q -2.71269,0.21697 -5.821,-0.55674 -2.30322,-0.56919 -3.93517,-2.24588 -1.6087,-1.68302 -2.29458,-4.19264 -1.21936,-4.46151 1.18514,-8.09041 1.6065,-2.43689 5.65162,-3.99195 l -0.54617,-1.99839 2.46313,-0.67317 0.54618,1.99838 q 3.74349,-0.64852 6.37029,0.55645 3.36438,1.52781 5.00802,5.34898 l -4.14427,1.83189 q -1.04497,-2.36152 -2.5857,-3.3389 -1.52384,-1.00697 -3.68304,-0.86639 l 3.29605,12.06004 q 3.37615,-0.0736 4.51927,0.0884 2.18688,0.32631 3.75503,1.22128 1.56816,0.89495 2.6824,2.41344 1.13749,1.51213 1.6773,3.48728 1.1876,4.34533 -0.78377,8.00571 -1.97137,3.66035 -6.30602,5.0698 l 1.15585,4.22913 z M 223.5054,117.76021 q -2.33828,1.03862 -3.32388,3.00613 -0.96235,1.96118 -0.37176,4.1222 0.58429,2.13781 2.16311,3.25463 1.60208,1.11046 4.69522,1.18904 z m 10.36347,28.23371 q 2.35734,-0.96892 3.44208,-3.21326 1.10801,-2.25069 0.37767,-4.92295 -0.62237,-2.27722 -2.13569,-3.33701 -1.49643,-1.08941 -5.16429,-1.26064 z"
         id="text9"
         style="font-size:160px;font-family:Arial;-inkscape-font-specification:Arial;white-space:pre;fill:url(#linearGradient2);fill-opacity:1;stroke:#26970c;stroke-width:0.79375;stroke-dasharray:none;stroke-opacity:1"
         aria-label="$" /><ellipse
         style="opacity:1;fill:#ffffff;fill-opacity:1;stroke:none;stroke-width:1.32292;stroke-dasharray:none;stroke-opacity:1"
         id="path9"
         cx="140.29742"
         cy="96.297409"
         rx="6.590518"
         ry="5.3577585" /><ellipse
         style="opacity:1;fill:#ffffff;fill-opacity:1;stroke:none;stroke-width:1.35679;stroke-dasharray:none;stroke-opacity:1"
         id="path9-7"
         cx="-237.63199"
         cy="59.998798"
         rx="6.083837"
         ry="3.1336088"
         transform="matrix(-0.72890179,-0.68461827,0.4248096,-0.90528272,0,0)" /><ellipse
         style="opacity:1;fill:#ffffff;fill-opacity:1;stroke:none;stroke-width:1.33578;stroke-dasharray:none;stroke-opacity:1"
         id="path9-7-4"
         cx="-158.14516"
         cy="147.54782"
         rx="3.3622978"
         ry="3.2418666"
         transform="matrix(-0.42997477,-0.9028409,0.96932038,-0.24580072,0,0)" /><ellipse
         style="opacity:1;fill:#ffffff;fill-opacity:1;stroke:none;stroke-width:1.39066;stroke-dasharray:none;stroke-opacity:1"
         id="path9-7-2"
         cx="-165.41591"
         cy="219.76433"
         rx="3.0636232"
         ry="1.9075332"
         transform="matrix(0.18361288,-0.98299863,0.96769534,-0.25212243,0,0)" /><ellipse
         style="opacity:1;fill:#ffffff;fill-opacity:1;stroke:none;stroke-width:1.32292;stroke-dasharray:none;stroke-opacity:1"
         id="path9-4"
         cx="151.02084"
         cy="101.5467"
         rx="3.1293111"
         ry="2.7974138" /></g><path
       style="display:inline;opacity:1;fill:#fff3e6;fill-opacity:1;stroke:#7b4937;stroke-width:1.32292;stroke-dasharray:none;stroke-opacity:1"
       d="m 64.719826,176 -11.189655,-6.73276 c -8.175031,-3.27686 -6.834113,-13.29392 5.759839,-14.29793 -11.766593,-0.49539 -15.381167,-0.92609 -14.492111,-4.95881 2.820625,-2.43867 5.991083,-3.80955 17.124514,0.57573 1.964276,-3.07865 3.276965,-6.62645 8.249999,-7.5388 1.738079,0.13028 2.411839,1.08837 3.034485,2.08621 -0.133623,2.05819 -0.694293,4.3299 -1.327586,6.63793 2.534573,2.63256 2.786382,7.07558 1.659482,12.61207 z"
       id="path24" /><path
       style="opacity:1;fill:#7b4937;fill-opacity:1;stroke:#7b4937;stroke-width:0.529167;stroke-dasharray:none;stroke-opacity:1"
       d="m 51.305515,167.69138 c 10.800403,-0.87454 10.318603,-4.14388 9.289313,-9.37673 0,0 0.605846,4.42263 -1.185347,6.54311 -3.545503,2.49979 -8.103966,2.83362 -8.103966,2.83362 z"
       id="path25" /><path
       style="display:inline;opacity:1;fill:#dfb47c;fill-opacity:1;stroke:#7b4937;stroke-width:1.32292;stroke-dasharray:none;stroke-opacity:1"
       d="m 40.017242,217.91379 c 5.573335,-12.88216 7.462961,-28.90093 6.969826,-43.95258 9.423323,-4.74777 18.846645,-8.73014 28.269967,-10.21254 0.774316,7.58004 5.415702,16.38125 12.981736,26.10604 l -23.661185,9.5677 c 5.854313,4.74118 6.182886,10.73134 -6.353447,19.62931 -4.345921,-1.38608 -3.867104,-6.77315 -3.12931,-12.37499 -2.343727,6.6754 -4.710098,13.32607 -15.077587,11.23706 z"
       id="path22" /><path
       style="display:inline;opacity:1;fill:#ffffff;fill-opacity:1;stroke:#7b4937;stroke-width:1.32292;stroke-dasharray:none;stroke-opacity:1"
       d="m 56.51724,197.90517 c -0.986896,-2.01241 -2.136551,-3.8019 -2.512929,-5.64224 1.415147,-6.69691 3.796478,-6.56342 4.551725,-0.94828 0.306972,4.35383 -1.311493,4.76492 -2.038796,6.59052 z"
       id="path23" /><path
       style="display:inline;opacity:1;fill:#dfb47c;fill-opacity:1;stroke:#7b4937;stroke-width:1.32292;stroke-dasharray:none;stroke-opacity:1"
       d="m 205.30172,203.21552 c -3.46597,2.46776 -3.51279,13.63881 -1.42241,30.25 11.64149,4.97888 19.23658,-1.02535 27.5,-5.21552 17.02611,4.13055 15.40576,-4.89419 5.97414,-10.24138 14.21843,3.45886 21.06472,-2.9118 26.26724,-11.47414 -1.04841,-3.43782 -3.65608,-4.64813 -6.44828,-5.59483 -17.58192,0.854 -25.88475,-4.09143 -35.75,-8.06034 -1.3304,7.05147 -5.46873,11.59856 -16.12069,10.33621 z"
       id="path29" /><path
       style="fill:#fffbf4;fill-opacity:1;stroke:#7b4937;stroke-width:0.529167;stroke-opacity:1"
       d="m 230.32727,218.54733 c -3.86111,-0.57856 -5.88073,-2.2877 -5.74783,-4.3887 0.0621,-0.982 1.32535,-1.96172 2.31452,-1.95007 2.71299,0.0319 3.59849,2.41228 4.26644,5.42733 0.12655,0.57123 -0.25447,0.99814 -0.83313,0.91144 z"
       id="path30" /><path
       style="display:inline;fill:#fffbf4;fill-opacity:1;stroke:#7b4937;stroke-width:1.32292;stroke-dasharray:none;stroke-opacity:1"
       d="m 205.31699,202.90307 c 12.37605,2.62868 14.47082,-3.65854 16.56215,-8.44871 -5.64166,-5.76702 -22.74148,-2.55906 -25.21202,1.07286 -0.63116,2.92104 -0.31243,5.85022 8.64987,7.37585 z"
       id="path31" /><text
       xml:space="preserve"
       transform="matrix(0.25366973,0.07520641,-0.07520641,0.25366973,252.57456,134.66027)"
       id="text31"
       style="font-weight:bold;font-size:150px;font-family:Arial;-inkscape-font-specification:'Arial Bold';text-align:start;writing-mode:lr-tb;direction:ltr;white-space:pre;shape-inside:url(#rect31);display:inline;fill:url(#linearGradient4);stroke:#26970c;stroke-width:3;stroke-dasharray:none;stroke-opacity:1"><tspan
         x="91.751953"
         y="222.56434"
         id="tspan2"><tspan
           style="font-weight:normal;-inkscape-font-specification:Arial"
           id="tspan1">€</tspan></tspan></text><text
       xml:space="preserve"
       transform="matrix(0.24032058,-0.11068134,0.11068134,0.24032058,-4.8227755,97.65763)"
       id="text32"
       style="font-style:normal;font-variant:normal;font-weight:normal;font-stretch:normal;font-size:150px;font-family:Arial;-inkscape-font-specification:Arial;text-align:start;writing-mode:lr-tb;direction:ltr;white-space:pre;shape-inside:url(#rect32);display:inline;fill:url(#linearGradient8);stroke:#26970c;stroke-width:3;stroke-dasharray:none;stroke-opacity:1"><tspan
         x="50.175781"
         y="192.45691"
         id="tspan3">đ</tspan></text><text
       xml:space="preserve"
       transform="matrix(0.25503504,0.07043769,-0.07043769,0.25503504,49.052956,72.707455)"
       id="text32-8"
       style="font-style:normal;font-variant:normal;font-weight:normal;font-stretch:normal;font-size:150px;font-family:Arial;-inkscape-font-specification:Arial;text-align:start;writing-mode:lr-tb;direction:ltr;white-space:pre;shape-inside:url(#rect32-4);display:inline;fill:url(#linearGradient10);stroke:#26970c;stroke-width:3;stroke-dasharray:none;stroke-opacity:1"><tspan
         x="50.175781"
         y="192.45691"
         id="tspan4">đ</tspan></text><text
       xml:space="preserve"
       transform="matrix(0.24032058,-0.11068134,0.11068134,0.24032058,-1.6825463,57.046077)"
       id="text32-1"
       style="font-style:normal;font-variant:normal;font-weight:normal;font-stretch:normal;font-size:150px;font-family:Arial;-inkscape-font-specification:Arial;text-align:start;writing-mode:lr-tb;direction:ltr;white-space:pre;shape-inside:url(#rect32-5);display:inline;fill:url(#linearGradient6);stroke:#26970c;stroke-width:3;stroke-dasharray:none;stroke-opacity:1"><tspan
         x="50.175781"
         y="192.45691"
         id="tspan5">đ</tspan></text></g></svg>
